<svg width="1160" height="720" viewBox="0 0 1160 720" fill="none" xmlns="http://www.w3.org/2000/svg">
  <defs>
    <linearGradient id="bgGradient" x1="0" y1="0" x2="1" y2="1">
      <stop offset="0" stop-color="#0F172A"/>
      <stop offset="1" stop-color="#1E293B"/>
    </linearGradient>
    <linearGradient id="cardGradient" x1="0" y1="0" x2="1" y2="1">
      <stop offset="0" stop-color="#1F2937"/>
      <stop offset="1" stop-color="#111827"/>
    </linearGradient>
    <linearGradient id="accentGradient" x1="0" y1="0" x2="1" y2="1">
      <stop offset="0" stop-color="#38BDF8"/>
      <stop offset="1" stop-color="#6366F1"/>
    </linearGradient>
    <linearGradient id="accentGradientSecondary" x1="0" y1="0" x2="1" y2="1">
      <stop offset="0" stop-color="#F97316"/>
      <stop offset="1" stop-color="#DB2777"/>
    </linearGradient>
    <clipPath id="rounded">
      <rect width="1120" height="680" rx="24" x="20" y="20" />
    </clipPath>
  </defs>
  <rect width="1160" height="720" rx="32" fill="#020617"/>
  <g clip-path="url(#rounded)">
    <rect x="20" y="20" width="1120" height="680" fill="url(#bgGradient)"/>
    <rect x="20" y="20" width="1120" height="120" fill="#02061744"/>
    <text x="60" y="90" fill="#F8FAFC" font-size="38" font-family="Inter, sans-serif" font-weight="600">HireSevak Command Center</text>
    <rect x="60" y="48" width="160" height="40" rx="20" fill="#0F172A" stroke="#38BDF8" stroke-width="1.5"/>
    <text x="80" y="74" fill="#BAE6FD" font-size="16" font-family="Inter, sans-serif" font-weight="500">Early Access</text>
    <rect x="860" y="48" width="220" height="40" rx="12" fill="#0F172A" stroke="#4ADE80" stroke-width="1.5"/>
    <text x="880" y="74" fill="#BBF7D0" font-size="16" font-family="Inter, sans-serif" font-weight="500">98.4% tasks completed</text>
    <rect x="60" y="170" width="320" height="180" rx="20" fill="url(#cardGradient)" stroke="#1F2937"/>
    <text x="96" y="212" fill="#E0F2FE" font-size="18" font-family="Inter, sans-serif" font-weight="600">Dental Insurance</text>
    <text x="96" y="240" fill="#94A3B8" font-size="14" font-family="Inter, sans-serif">Open Dental | United Concordia</text>
    <rect x="96" y="260" width="248" height="48" rx="12" fill="#0F172A"/>
    <text x="116" y="290" fill="#F8FAFC" font-size="16" font-family="Inter, sans-serif">422 verifications cleared</text>
    <rect x="96" y="320" width="120" height="8" rx="4" fill="#1E293B"/>
    <rect x="96" y="320" width="96" height="8" rx="4" fill="url(#accentGradient)"/>
    <text x="96" y="350" fill="#94A3B8" font-size="12" font-family="Inter, sans-serif">Backlog down 88%</text>
    <text x="60" y="380" fill="#1E293B" font-size="0"></text>
    <rect x="420" y="170" width="320" height="180" rx="20" fill="url(#cardGradient)" stroke="#1F2937"/>
    <text x="456" y="212" fill="#E0F2FE" font-size="18" font-family="Inter, sans-serif" font-weight="600">Accounting</text>
    <text x="456" y="240" fill="#94A3B8" font-size="14" font-family="Inter, sans-serif">Tally Desktop</text>
    <rect x="456" y="260" width="248" height="48" rx="12" fill="#0F172A"/>
    <text x="476" y="290" fill="#F8FAFC" font-size="16" font-family="Inter, sans-serif">6.5 hrs saved per day</text>
    <rect x="456" y="320" width="120" height="8" rx="4" fill="#1E293B"/>
    <rect x="456" y="320" width="104" height="8" rx="4" fill="url(#accentGradientSecondary)"/>
    <text x="456" y="350" fill="#94A3B8" font-size="12" font-family="Inter, sans-serif">Ledger accuracy 99.7%</text>
    <rect x="780" y="170" width="320" height="180" rx="20" fill="url(#cardGradient)" stroke="#1F2937"/>
    <text x="816" y="212" fill="#E0F2FE" font-size="18" font-family="Inter, sans-serif" font-weight="600">Freight Ops</text>
    <text x="816" y="240" fill="#94A3B8" font-size="14" font-family="Inter, sans-serif">Customs & Bookings</text>
    <rect x="816" y="260" width="248" height="48" rx="12" fill="#0F172A"/>
    <text x="836" y="290" fill="#F8FAFC" font-size="16" font-family="Inter, sans-serif">212 documents processed</text>
    <rect x="816" y="320" width="120" height="8" rx="4" fill="#1E293B"/>
    <rect x="816" y="320" width="84" height="8" rx="4" fill="url(#accentGradient)"/>
    <text x="816" y="350" fill="#94A3B8" font-size="12" font-family="Inter, sans-serif">Turnaround 3x faster</text>
    <rect x="60" y="390" width="480" height="220" rx="24" fill="#0B1120" stroke="#1F2937"/>
    <text x="96" y="432" fill="#F8FAFC" font-size="20" font-family="Inter, sans-serif" font-weight="600">Agent timeline</text>
    <text x="96" y="462" fill="#94A3B8" font-size="13" font-family="Inter, sans-serif">Live visibility across every action completed by HireSevak agents</text>
    <line x1="96" y1="488" x2="516" y2="488" stroke="#1E3A8A" stroke-width="1.5" stroke-dasharray="6 6"/>
    <circle cx="140" cy="488" r="9" fill="#38BDF8"/>
    <text x="160" y="496" fill="#E0F2FE" font-size="14" font-family="Inter, sans-serif">08:12 Insurance portal login</text>
    <circle cx="270" cy="488" r="9" fill="#4ADE80"/>
    <text x="290" y="496" fill="#E0F2FE" font-size="14" font-family="Inter, sans-serif">08:24 Claim status synced to API</text>
    <circle cx="400" cy="488" r="9" fill="#FBBF24"/>
    <text x="420" y="496" fill="#FDE68A" font-size="14" font-family="Inter, sans-serif">08:41 Human approval</text>
    <rect x="576" y="390" width="524" height="220" rx="24" fill="#0B1120" stroke="#1F2937"/>
    <text x="612" y="432" fill="#F8FAFC" font-size="20" font-family="Inter, sans-serif" font-weight="600">Exception queue</text>
    <text x="612" y="462" fill="#94A3B8" font-size="13" font-family="Inter, sans-serif">Hi-visibility queue for manual reviews and retraining data</text>
    <rect x="612" y="480" width="464" height="44" rx="12" fill="#111827" stroke="#1E3A8A"/>
    <text x="632" y="508" fill="#E0F2FE" font-size="15" font-family="Inter, sans-serif">Dental - Missing policy number | Assigned to Maya P. | SLA 20m</text>
    <rect x="612" y="532" width="464" height="44" rx="12" fill="#111827" stroke="#7C3AED"/>
    <text x="632" y="560" fill="#E0F2FE" font-size="15" font-family="Inter, sans-serif">Freight - Customs invoice mismatch | Auto retrain suggested</text>
    <rect x="612" y="584" width="464" height="44" rx="12" fill="#111827" stroke="#F97316"/>
    <text x="632" y="612" fill="#E0F2FE" font-size="15" font-family="Inter, sans-serif">Accounting - Non-standard ledger detected | Awaiting approval</text>
  </g>
  <rect x="20" y="20" width="1120" height="680" rx="24" stroke="#1E293B" stroke-width="2"/>
</svg>
